{"accessors":[{"bufferView":0,"byteOffset":0,"componentType":5126,"count":163533,"max":[0.0,0.0,-0.0006558304516347846],"min":[-0.19434485504900027,-0.19429796936844088,-0.17286604999999997],"type":"VEC3"},{"bufferView":0,"byteOffset":1962396,"componentType":5126,"count":5376,"max":[0.012699999999999989,0.45085,0.025399999999999993],"min":[-0.012699999999999989,0.0063499999999999949,-0.025400000000000007],"type":"VEC3"},{"bufferView":0,"byteOffset":2026908,"componentType":5126,"count":60,"max":[0.0762,0.090551,0.08343900000000002],"min":[0.0,-0.090551,-0.08343900000000003],"type":"VEC3"},{"bufferView":0,"byteOffset":2027628,"componentType":5126,"count":622,"max":[0.038099999999999998,0.012699999999999989,0.0],"min":[-0.03810000000000001,-0.012699999999999989,-0.00635],"type":"VEC3"},{"bufferView":0,"byteOffset":2035092,"componentType":5126,"count":776,"max":[0.7429499999999999,0.41275,0.0],"min":[-0.08255000000000001,-5.551115123125783e-17,-0.127],"type":"VEC3"},{"bufferView":0,"byteOffset":2044404,"componentType":5126,"count":8928,"max":[0.012700000000000007,0.6604,0.025399999999999993],"min":[-0.012700000000000003,0.0,-0.02540000000000002],"type":"VEC3"},{"bufferView":0,"byteOffset":2151540,"componentType":5126,"count":518,"max":[0.0,0.17145,3.552713678800501e-18],"min":[-0.025400000000000007,0.0,-0.0254],"type":"VEC3"},{"bufferView":0,"byteOffset":2157756,"componentType":5126,"count":374,"max":[0.2413,0.0,0.0],"min":[0.0,-0.025400000000000007,-0.025399999999999993],"type":"VEC3"},{"bufferView":0,"byteOffset":2162244,"componentType":5126,"count":628,"max":[0.025399999999999979,0.0381,0.0],"min":[0.0,-0.0381,-0.0254],"type":"VEC3"},{"bufferView":0,"byteOffset":2169780,"componentType":5126,"count":480,"max":[0.0254,0.0,0.0],"min":[-0.0254,-0.025399999999999979,-0.0254],"type":"VEC3"},{"bufferView":0,"byteOffset":2175540,"componentType":5126,"count":2120,"max":[0.2921,0.025400000000000007,0.012700000000000017],"min":[-0.2921,-0.025400000000000007,-0.012700000000000017],"type":"VEC3"},{"bufferView":0,"byteOffset":2200980,"componentType":5126,"count":2120,"max":[0.2921,0.025400000000000007,0.012700000000000017],"min":[-0.29209999999999999,-0.025400000000000007,-0.012700000000000017],"type":"VEC3"},{"bufferView":0,"byteOffset":2226420,"componentType":5126,"count":1232,"max":[0.3556,0.0254,0.012700000000000017],"min":[-0.05080000000000001,-0.5080000000000001,-0.012700000000000017],"type":"VEC3"},{"bufferView":0,"byteOffset":2241204,"componentType":5126,"count":1232,"max":[0.3556,0.0254,0.012700000000000047],"min":[-0.05080000000000001,-0.5080000000000001,-0.012700000000000003],"type":"VEC3"},{"bufferView":0,"byteOffset":2255988,"componentType":5126,"count":1342,"max":[0.015557500000000033,0.015557499999999976,1.4210854715202005e-17],"min":[-0.015557499999999992,-0.015557500000000006,-0.007937500000000014],"type":"VEC3"},{"bufferView":0,"byteOffset":2272092,"componentType":5126,"count":194,"max":[0.007239095848374177,0.025400000000000007,0.006337300000000014],"min":[-0.007239095848374177,-0.22860000000000003,-0.0063373000000000278],"type":"VEC3"},{"bufferView":0,"byteOffset":2274420,"componentType":5126,"count":5292,"max":[0.023394639261530644,0.006286500000000004,0.023854228666702824],"min":[-0.023394639261530644,-0.006286500000000018,-0.023854228666702824],"type":"VEC3"},{"bufferView":0,"byteOffset":2337924,"componentType":5126,"count":72,"max":[0.0146646968374165,0.012699999999999989,1.4210854715202005e-17],"min":[-0.014664696837416528,-0.012700000000000017,-0.15976600000000003],"type":"VEC3"},{"bufferView":0,"byteOffset":2338788,"componentType":5126,"count":72,"max":[0.0146646968374165,0.01270000000000003,0.0],"min":[-0.0146646968374165,-0.012700000000000017,-0.009144000000000007],"type":"VEC3"},{"bufferView":0,"byteOffset":2339652,"componentType":5126,"count":49220,"max":[0.0572002,0.021,0.0],"min":[-0.03476400000000004,-0.02100000000000003,-0.04445000000000003],"type":"VEC3"},{"bufferView":0,"byteOffset":2930292,"componentType":5126,"count":5689,"max":[0.032,0.032,0.011525000000000006],"min":[-0.03199999999999999,-0.032,-0.009825000000000018],"type":"VEC3"},{"bufferView":0,"byteOffset":2998560,"componentType":5126,"count":16435,"max":[0.029991120151092136,0.03500000000000003,0.029991120151092164],"min":[-0.03814108252475668,-0.05835000000000003,-0.03802030086559549],"type":"VEC3"},{"bufferView":0,"byteOffset":3195780,"componentType":5126,"count":1904,"max":[0.08890000000000004,9.769962616701377e-18,2.842170943040401e-17],"min":[-0.08890000000000002,-0.10159999999999998,-0.0031750000000000117],"type":"VEC3"},{"bufferView":0,"byteOffset":3218628,"componentType":5126,"count":936,"max":[0.012700000000000003,0.044449999999999999,0.025400000000000007],"min":[-0.012700000000000017,-0.04445,-0.025400000000000007],"type":"VEC3"},{"bufferView":0,"byteOffset":3229860,"componentType":5126,"count":36,"max":[0.127,0.0073323484187083069,0.006350000000000051],"min":[-0.127,-0.0073323484187083069,-0.006350000000000023],"type":"VEC3"},{"bufferView":0,"byteOffset":3230292,"componentType":5126,"count":16684,"max":[0.09982888152266571,0.0019939000000000108,0.09982873372984733],"min":[-0.09982888152266571,-0.0019939000000000108,-0.09982873372984727],"type":"VEC3"},{"bufferView":0,"byteOffset":3430500,"componentType":5126,"count":3002,"max":[0.058528594780987878,0.017462500000000007,-0.0000071761424943588289],"min":[0.0,-0.007937500000000014,-0.05215928371273964],"type":"VEC3"},{"bufferView":0,"byteOffset":3466524,"componentType":5126,"count":1510,"max":[0.06348890832287806,0.0015875000000000058,0.14561940674229144],"min":[-0.0635,-0.0015875000000000058,0.0],"type":"VEC3"},{"bufferView":0,"byteOffset":3484644,"componentType":5126,"count":72,"max":[0.013335000000000009,0.0146646968374165,0.012699999999999989],"min":[-0.013335000000000009,-0.014664696837416613,-0.012700000000000074],"type":"VEC3"},{"bufferView":0,"byteOffset":3485508,"componentType":5126,"count":72,"max":[0.0238125,0.014664696837416613,0.012700000000000047],"min":[-0.023812500000000009,-0.014664696837416443,-0.012700000000000047],"type":"VEC3"},{"bufferView":0,"byteOffset":3486372,"componentType":5126,"count":2416,"max":[0.025400000000000035,0.1016,0.0127],"min":[-0.025399999999999979,-0.1016,-0.012700000000000003],"type":"VEC3"},{"bufferView":0,"byteOffset":3515364,"componentType":5126,"count":3150,"max":[0.047625,0.01976755020390027,0.019767550000000003],"min":[0.0,-0.01976754999999997,-0.019767550000000003],"type":"VEC3"},{"bufferView":0,"byteOffset":3553164,"componentType":5126,"count":1548,"max":[0.38959898794721339,0.01976755000000003,0.01976755000000003],"min":[-0.0009154879472028484,-0.01976755000000003,-0.01976755000000003],"type":"VEC3"},{"bufferView":0,"byteOffset":3571740,"componentType":5126,"count":2212,"max":[0.04445,0.019767550000000003,0.01976754999999997],"min":[0.0,-0.019767550000000003,-0.01976754999999997],"type":"VEC3"},{"bufferView":0,"byteOffset":3598284,"componentType":5126,"count":304,"max":[0.004762499999999999,0.012700000000000047,0.004746233703793023],"min":[-0.004762499999999999,-0.012700000000000047,-0.0047625],"type":"VEC3"},{"bufferView":0,"byteOffset":3601932,"componentType":5126,"count":634,"max":[0.4255769999999999,0.019145249999999976,0.019145250000000004],"min":[-0.025399999999999979,-0.019145250000000035,-0.019145250000000004],"type":"VEC3"},{"bufferView":0,"byteOffset":3609540,"componentType":5126,"count":1384,"max":[0.1016,4.0389678347315809e-31,0.0005855214026497038],"min":[0.0,-0.10160000000000001,-0.0031750000000000686],"type":"VEC3"},{"bufferView":0,"byteOffset":3626148,"componentType":5126,"count":48,"max":[0.02540000000000001,0.012700000000000047,0.254],"min":[-0.02539999999999999,-0.012700000000000017,-0.25400000000000008],"type":"VEC3"},{"bufferView":0,"byteOffset":3626724,"componentType":5126,"count":184,"max":[0.025400000000000035,0.0254,0.012700000000000047],"min":[-0.025400000000000035,-0.025400000000000004,-0.012699999999999989],"type":"VEC3"},{"bufferView":1,"byteOffset":0,"componentType":5126,"count":163533,"type":"VEC3"},{"bufferView":1,"byteOffset":1962396,"componentType":5126,"count":5376,"type":"VEC3"},{"bufferView":1,"byteOffset":2026908,"componentType":5126,"count":60,"type":"VEC3"},{"bufferView":1,"byteOffset":2027628,"componentType":5126,"count":622,"type":"VEC3"},{"bufferView":1,"byteOffset":2035092,"componentType":5126,"count":776,"type":"VEC3"},{"bufferView":1,"byteOffset":2044404,"componentType":5126,"count":8928,"type":"VEC3"},{"bufferView":1,"byteOffset":2151540,"componentType":5126,"count":518,"type":"VEC3"},{"bufferView":1,"byteOffset":2157756,"componentType":5126,"count":374,"type":"VEC3"},{"bufferView":1,"byteOffset":2162244,"componentType":5126,"count":628,"type":"VEC3"},{"bufferView":1,"byteOffset":2169780,"componentType":5126,"count":480,"type":"VEC3"},{"bufferView":1,"byteOffset":2175540,"componentType":5126,"count":2120,"type":"VEC3"},{"bufferView":1,"byteOffset":2200980,"componentType":5126,"count":2120,"type":"VEC3"},{"bufferView":1,"byteOffset":2226420,"componentType":5126,"count":1232,"type":"VEC3"},{"bufferView":1,"byteOffset":2241204,"componentType":5126,"count":1232,"type":"VEC3"},{"bufferView":1,"byteOffset":2255988,"componentType":5126,"count":1342,"type":"VEC3"},{"bufferView":1,"byteOffset":2272092,"componentType":5126,"count":194,"type":"VEC3"},{"bufferView":1,"byteOffset":2274420,"componentType":5126,"count":5292,"type":"VEC3"},{"bufferView":1,"byteOffset":2337924,"componentType":5126,"count":72,"type":"VEC3"},{"bufferView":1,"byteOffset":2338788,"componentType":5126,"count":72,"type":"VEC3"},{"bufferView":1,"byteOffset":2339652,"componentType":5126,"count":49220,"type":"VEC3"},{"bufferView":1,"byteOffset":2930292,"componentType":5126,"count":5689,"type":"VEC3"},{"bufferView":1,"byteOffset":2998560,"componentType":5126,"count":16435,"type":"VEC3"},{"bufferView":1,"byteOffset":3195780,"componentType":5126,"count":1904,"type":"VEC3"},{"bufferView":1,"byteOffset":3218628,"componentType":5126,"count":936,"type":"VEC3"},{"bufferView":1,"byteOffset":3229860,"componentType":5126,"count":36,"type":"VEC3"},{"bufferView":1,"byteOffset":3230292,"componentType":5126,"count":16684,"type":"VEC3"},{"bufferView":1,"byteOffset":3430500,"componentType":5126,"count":3002,"type":"VEC3"},{"bufferView":1,"byteOffset":3466524,"componentType":5126,"count":1510,"type":"VEC3"},{"bufferView":1,"byteOffset":3484644,"componentType":5126,"count":72,"type":"VEC3"},{"bufferView":1,"byteOffset":3485508,"componentType":5126,"count":72,"type":"VEC3"},{"bufferView":1,"byteOffset":3486372,"componentType":5126,"count":2416,"type":"VEC3"},{"bufferView":1,"byteOffset":3515364,"componentType":5126,"count":3150,"type":"VEC3"},{"bufferView":1,"byteOffset":3553164,"componentType":5126,"count":1548,"type":"VEC3"},{"bufferView":1,"byteOffset":3571740,"componentType":5126,"count":2212,"type":"VEC3"},{"bufferView":1,"byteOffset":3598284,"componentType":5126,"count":304,"type":"VEC3"},{"bufferView":1,"byteOffset":3601932,"componentType":5126,"count":634,"type":"VEC3"},{"bufferView":1,"byteOffset":3609540,"componentType":5126,"count":1384,"type":"VEC3"},{"bufferView":1,"byteOffset":3626148,"componentType":5126,"count":48,"type":"VEC3"},{"bufferView":1,"byteOffset":3626724,"componentType":5126,"count":184,"type":"VEC3"},{"bufferView":2,"byteOffset":0,"componentType":5125,"count":490617,"type":"SCALAR"},{"bufferView":2,"byteOffset":1962468,"componentType":5123,"count":16080,"type":"SCALAR"},{"bufferView":2,"byteOffset":1994628,"componentType":5123,"count":108,"type":"SCALAR"},{"bufferView":2,"byteOffset":1994844,"componentType":5123,"count":1806,"type":"SCALAR"},{"bufferView":2,"byteOffset":1998456,"componentType":5123,"count":2916,"type":"SCALAR"},{"bufferView":2,"byteOffset":2004288,"componentType":5123,"count":26736,"type":"SCALAR"},{"bufferView":2,"byteOffset":2057760,"componentType":5123,"count":1500,"type":"SCALAR"},{"bufferView":2,"byteOffset":2060760,"componentType":5123,"count":1068,"type":"SCALAR"},{"bufferView":2,"byteOffset":2062896,"componentType":5123,"count":1836,"type":"SCALAR"},{"bufferView":2,"byteOffset":2066568,"componentType":5123,"count":1392,"type":"SCALAR"},{"bufferView":2,"byteOffset":2069352,"componentType":5123,"count":6312,"type":"SCALAR"},{"bufferView":2,"byteOffset":2081976,"componentType":5123,"count":6312,"type":"SCALAR"},{"bufferView":2,"byteOffset":2094600,"componentType":5123,"count":3648,"type":"SCALAR"},{"bufferView":2,"byteOffset":2101896,"componentType":5123,"count":3648,"type":"SCALAR"},{"bufferView":2,"byteOffset":2109192,"componentType":5123,"count":4392,"type":"SCALAR"},{"bufferView":2,"byteOffset":2117976,"componentType":5123,"count":492,"type":"SCALAR"},{"bufferView":2,"byteOffset":2118960,"componentType":5123,"count":13716,"type":"SCALAR"},{"bufferView":2,"byteOffset":2146392,"componentType":5123,"count":144,"type":"SCALAR"},{"bufferView":2,"byteOffset":2146680,"componentType":5123,"count":144,"type":"SCALAR"},{"bufferView":2,"byteOffset":2146968,"componentType":5123,"count":178920,"type":"SCALAR"},{"bufferView":2,"byteOffset":2504808,"componentType":5123,"count":20532,"type":"SCALAR"},{"bufferView":2,"byteOffset":2545872,"componentType":5123,"count":44766,"type":"SCALAR"},{"bufferView":2,"byteOffset":2635404,"componentType":5123,"count":5592,"type":"SCALAR"},{"bufferView":2,"byteOffset":2646588,"componentType":5123,"count":2760,"type":"SCALAR"},{"bufferView":2,"byteOffset":2652108,"componentType":5123,"count":60,"type":"SCALAR"},{"bufferView":2,"byteOffset":2652228,"componentType":5123,"count":44646,"type":"SCALAR"},{"bufferView":2,"byteOffset":2741520,"componentType":5123,"count":8604,"type":"SCALAR"},{"bufferView":2,"byteOffset":2758728,"componentType":5123,"count":4476,"type":"SCALAR"},{"bufferView":2,"byteOffset":2767680,"componentType":5123,"count":144,"type":"SCALAR"},{"bufferView":2,"byteOffset":2767968,"componentType":5123,"count":144,"type":"SCALAR"},{"bufferView":2,"byteOffset":2768256,"componentType":5123,"count":7200,"type":"SCALAR"},{"bufferView":2,"byteOffset":2782656,"componentType":5123,"count":11412,"type":"SCALAR"},{"bufferView":2,"byteOffset":2805480,"componentType":5123,"count":5772,"type":"SCALAR"},{"bufferView":2,"byteOffset":2817024,"componentType":5123,"count":6984,"type":"SCALAR"},{"bufferView":2,"byteOffset":2830992,"componentType":5123,"count":864,"type":"SCALAR"},{"bufferView":2,"byteOffset":2832720,"componentType":5123,"count":1818,"type":"SCALAR"},{"bufferView":2,"byteOffset":2836356,"componentType":5123,"count":4056,"type":"SCALAR"},{"bufferView":2,"byteOffset":2844468,"componentType":5123,"count":96,"type":"SCALAR"},{"bufferView":2,"byteOffset":2844660,"componentType":5123,"count":504,"type":"SCALAR"}],"asset":{"generator":"Open CASCADE Technology 7.6 [dev.opencascade.org]","version":"2.0","extras":{"Author":"","Originating system":"SolidWorks 2024","Organization":"","Comments":"STEP AP214"}},"bufferViews":[{"buffer":0,"byteLength":3628932,"byteOffset":0,"byteStride":12,"target":34962},{"buffer":0,"byteLength":3628932,"byteOffset":3628932,"byteStride":12,"target":34962},{"buffer":0,"byteLength":2845668,"byteOffset":7257864,"target":34963}],"buffers":[{"byteLength":10103532,"uri":"RBT-00-00_no_arm.bin"}],"materials":[{"name":"mat_0","pbrMetallicRoughness":{"baseColorFactor":[0.5906188488006592,0.637596845626831,0.8549926280975342,1.0],"roughnessFactor":0.2121320366859436},"doubleSided":true}],"meshes":[{"name":"SDS MK4i","primitives":[{"attributes":{"NORMAL":39,"POSITION":0},"indices":78,"mode":4}]},{"name":"SDS MK4i","primitives":[{"attributes":{"NORMAL":39,"POSITION":0},"indices":78,"mode":4}]},{"name":"SDS MK4i","primitives":[{"attributes":{"NORMAL":39,"POSITION":0},"indices":78,"mode":4}]},{"name":"SDS MK4i","primitives":[{"attributes":{"NORMAL":39,"POSITION":0},"indices":78,"mode":4}]},{"name":"CHS-00-01","primitives":[{"attributes":{"NORMAL":40,"POSITION":1},"indices":79,"material":0,"mode":4}]},{"name":"CHS-00-01","primitives":[{"attributes":{"NORMAL":40,"POSITION":1},"indices":79,"material":0,"mode":4}]},{"name":"CHS-00-01","primitives":[{"attributes":{"NORMAL":40,"POSITION":1},"indices":79,"material":0,"mode":4}]},{"name":"CHS-00-01","primitives":[{"attributes":{"NORMAL":40,"POSITION":1},"indices":79,"material":0,"mode":4}]},{"name":"12Vbattery","primitives":[{"attributes":{"NORMAL":41,"POSITION":2},"indices":80,"material":0,"mode":4}]},{"name":"CHS-00-08","primitives":[{"attributes":{"NORMAL":42,"POSITION":3},"indices":81,"material":0,"mode":4}]},{"name":"CHS-00-08","primitives":[{"attributes":{"NORMAL":42,"POSITION":3},"indices":81,"material":0,"mode":4}]},{"name":"CHS-00-08","primitives":[{"attributes":{"NORMAL":42,"POSITION":3},"indices":81,"material":0,"mode":4}]},{"name":"CHS-00-08","primitives":[{"attributes":{"NORMAL":42,"POSITION":3},"indices":81,"material":0,"mode":4}]},{"name":"CHS-00-06","primitives":[{"attributes":{"NORMAL":43,"POSITION":4},"indices":82,"material":0,"mode":4}]},{"name":"CHS-00-06","primitives":[{"attributes":{"NORMAL":43,"POSITION":4},"indices":82,"material":0,"mode":4}]},{"name":"CHS-00-09","primitives":[{"attributes":{"NORMAL":44,"POSITION":5},"indices":83,"material":0,"mode":4}]},{"name":"CHS-00-10","primitives":[{"attributes":{"NORMAL":45,"POSITION":6},"indices":84,"material":0,"mode":4}]},{"name":"CHS-00-10","primitives":[{"attributes":{"NORMAL":45,"POSITION":6},"indices":84,"material":0,"mode":4}]},{"name":"CHS-00-11","primitives":[{"attributes":{"NORMAL":46,"POSITION":7},"indices":85,"material":0,"mode":4}]},{"name":"CHS-00-11","primitives":[{"attributes":{"NORMAL":46,"POSITION":7},"indices":85,"material":0,"mode":4}]},{"name":"CHS-00-09","primitives":[{"attributes":{"NORMAL":44,"POSITION":5},"indices":83,"material":0,"mode":4}]},{"name":"CHS-00-12","primitives":[{"attributes":{"NORMAL":47,"POSITION":8},"indices":86,"material":0,"mode":4}]},{"name":"CHS-00-12","primitives":[{"attributes":{"NORMAL":47,"POSITION":8},"indices":86,"material":0,"mode":4}]},{"name":"CHS-00-13","primitives":[{"attributes":{"NORMAL":48,"POSITION":9},"indices":87,"material":0,"mode":4}]},{"name":"CHS-00-13","primitives":[{"attributes":{"NORMAL":48,"POSITION":9},"indices":87,"material":0,"mode":4}]},{"name":"STR-00-01","primitives":[{"attributes":{"NORMAL":49,"POSITION":10},"indices":88,"material":0,"mode":4}]},{"name":"STR-00-02","primitives":[{"attributes":{"NORMAL":50,"POSITION":11},"indices":89,"material":0,"mode":4}]},{"name":"STR-00-04","primitives":[{"attributes":{"NORMAL":51,"POSITION":12},"indices":90,"material":0,"mode":4}]},{"name":"STR-00-06","primitives":[{"attributes":{"NORMAL":52,"POSITION":13},"indices":91,"material":0,"mode":4}]},{"name":"STR-03-02","primitives":[{"attributes":{"NORMAL":53,"POSITION":14},"indices":92,"material":0,"mode":4}]},{"name":"STR-03-02","primitives":[{"attributes":{"NORMAL":53,"POSITION":14},"indices":92,"material":0,"mode":4}]},{"name":"STR-04-01","primitives":[{"attributes":{"NORMAL":54,"POSITION":15},"indices":93,"material":0,"mode":4}]},{"name":"STR-04-03","primitives":[{"attributes":{"NORMAL":55,"POSITION":16},"indices":94,"material":0,"mode":4}]},{"name":"STR-04-03","primitives":[{"attributes":{"NORMAL":55,"POSITION":16},"indices":94,"material":0,"mode":4}]},{"name":"STR-04-04","primitives":[{"attributes":{"NORMAL":56,"POSITION":17},"indices":95,"material":0,"mode":4}]},{"name":"STR-04-05","primitives":[{"attributes":{"NORMAL":57,"POSITION":18},"indices":96,"material":0,"mode":4}]},{"name":"STR-04-05","primitives":[{"attributes":{"NORMAL":57,"POSITION":18},"indices":96,"material":0,"mode":4}]},{"name":"STR-03-02","primitives":[{"attributes":{"NORMAL":53,"POSITION":14},"indices":92,"material":0,"mode":4}]},{"name":"STR-05-01","primitives":[{"attributes":{"NORMAL":58,"POSITION":19},"indices":97,"material":0,"mode":4}]},{"name":"STR-05-02","primitives":[{"attributes":{"NORMAL":59,"POSITION":20},"indices":98,"material":0,"mode":4}]},{"name":"STR-05-03","primitives":[{"attributes":{"NORMAL":60,"POSITION":21},"indices":99,"material":0,"mode":4}]},{"name":"T-forbolts","primitives":[{"attributes":{"NORMAL":61,"POSITION":22},"indices":100,"material":0,"mode":4}]},{"name":"T-forbolts","primitives":[{"attributes":{"NORMAL":61,"POSITION":22},"indices":100,"material":0,"mode":4}]},{"name":"STR-00-08","primitives":[{"attributes":{"NORMAL":62,"POSITION":23},"indices":101,"material":0,"mode":4}]},{"name":"STR-00-08","primitives":[{"attributes":{"NORMAL":62,"POSITION":23},"indices":101,"material":0,"mode":4}]},{"name":"T-forbolts","primitives":[{"attributes":{"NORMAL":61,"POSITION":22},"indices":100,"material":0,"mode":4}]},{"name":"T-forbolts","primitives":[{"attributes":{"NORMAL":61,"POSITION":22},"indices":100,"material":0,"mode":4}]},{"name":"STR-05-01","primitives":[{"attributes":{"NORMAL":58,"POSITION":19},"indices":97,"material":0,"mode":4}]},{"name":"STR-05-02","primitives":[{"attributes":{"NORMAL":59,"POSITION":20},"indices":98,"material":0,"mode":4}]},{"name":"STR-05-03","primitives":[{"attributes":{"NORMAL":60,"POSITION":21},"indices":99,"material":0,"mode":4}]},{"name":"STR-03-01","primitives":[{"attributes":{"NORMAL":63,"POSITION":24},"indices":102,"material":0,"mode":4}]},{"name":"STR-02-01","primitives":[{"attributes":{"NORMAL":64,"POSITION":25},"indices":103,"material":0,"mode":4}]},{"name":"STR-02-02","primitives":[{"attributes":{"NORMAL":65,"POSITION":26},"indices":104,"material":0,"mode":4}]},{"name":"STR-02-01","primitives":[{"attributes":{"NORMAL":64,"POSITION":25},"indices":103,"material":0,"mode":4}]},{"name":"STR-02-02","primitives":[{"attributes":{"NORMAL":65,"POSITION":26},"indices":104,"material":0,"mode":4}]},{"name":"str-00-05","primitives":[{"attributes":{"NORMAL":66,"POSITION":27},"indices":105,"material":0,"mode":4}]},{"name":"str-00-05","primitives":[{"attributes":{"NORMAL":66,"POSITION":27},"indices":105,"material":0,"mode":4}]},{"name":"STR-03-03","primitives":[{"attributes":{"NORMAL":67,"POSITION":28},"indices":106,"material":0,"mode":4}]},{"name":"STR-03-03","primitives":[{"attributes":{"NORMAL":67,"POSITION":28},"indices":106,"material":0,"mode":4}]},{"name":"STR-03-04","primitives":[{"attributes":{"NORMAL":68,"POSITION":29},"indices":107,"material":0,"mode":4}]},{"name":"STR-02-02","primitives":[{"attributes":{"NORMAL":65,"POSITION":26},"indices":104,"material":0,"mode":4}]},{"name":"STR-02-02","primitives":[{"attributes":{"NORMAL":65,"POSITION":26},"indices":104,"material":0,"mode":4}]},{"name":"STR-03-02","primitives":[{"attributes":{"NORMAL":53,"POSITION":14},"indices":92,"material":0,"mode":4}]},{"name":"STR-03-02","primitives":[{"attributes":{"NORMAL":53,"POSITION":14},"indices":92,"material":0,"mode":4}]},{"name":"hng-00-01","primitives":[{"attributes":{"NORMAL":69,"POSITION":30},"indices":108,"material":0,"mode":4}]},{"name":"hng-00-01","primitives":[{"attributes":{"NORMAL":69,"POSITION":30},"indices":108,"material":0,"mode":4}]},{"name":"17R000-0_rod_guide","primitives":[{"attributes":{"NORMAL":70,"POSITION":31},"indices":109,"material":0,"mode":4}]},{"name":"17R-15.30250SR","primitives":[{"attributes":{"NORMAL":71,"POSITION":32},"indices":110,"material":0,"mode":4}]},{"name":"17P0000_rear_head","primitives":[{"attributes":{"NORMAL":72,"POSITION":33},"indices":111,"material":0,"mode":4}]},{"name":"D-358","primitives":[{"attributes":{"NORMAL":73,"POSITION":34},"indices":112,"material":0,"mode":4}]},{"name":"SR-1714-DP0000_rod","primitives":[{"attributes":{"NORMAL":74,"POSITION":35},"indices":113,"material":0,"mode":4}]},{"name":"HNG-00-06","primitives":[{"attributes":{"NORMAL":75,"POSITION":36},"indices":114,"material":0,"mode":4}]},{"name":"HNG-00-06","primitives":[{"attributes":{"NORMAL":75,"POSITION":36},"indices":114,"material":0,"mode":4}]},{"name":"HNG-00-06","primitives":[{"attributes":{"NORMAL":75,"POSITION":36},"indices":114,"material":0,"mode":4}]},{"name":"HNG-00-06","primitives":[{"attributes":{"NORMAL":75,"POSITION":36},"indices":114,"material":0,"mode":4}]},{"name":"17R000-0_rod_guide","primitives":[{"attributes":{"NORMAL":70,"POSITION":31},"indices":109,"material":0,"mode":4}]},{"name":"17R-15.30250SR","primitives":[{"attributes":{"NORMAL":71,"POSITION":32},"indices":110,"material":0,"mode":4}]},{"name":"17P0000_rear_head","primitives":[{"attributes":{"NORMAL":72,"POSITION":33},"indices":111,"material":0,"mode":4}]},{"name":"D-358","primitives":[{"attributes":{"NORMAL":73,"POSITION":34},"indices":112,"material":0,"mode":4}]},{"name":"SR-1714-DP0000_rod","primitives":[{"attributes":{"NORMAL":74,"POSITION":35},"indices":113,"material":0,"mode":4}]},{"name":"HNG-00-10","primitives":[{"attributes":{"NORMAL":76,"POSITION":37},"indices":115,"material":0,"mode":4}]},{"name":"HNG-00-10","primitives":[{"attributes":{"NORMAL":76,"POSITION":37},"indices":115,"material":0,"mode":4}]},{"name":"HNG-00-13","primitives":[{"attributes":{"NORMAL":77,"POSITION":38},"indices":116,"material":0,"mode":4}]},{"name":"HNG-00-13","primitives":[{"attributes":{"NORMAL":77,"POSITION":38},"indices":116,"material":0,"mode":4}]}],"nodes":[{"children":[1,27,56,71,72,73],"name":"RBT-00-00_no_arm"},{"children":[2,3,4,5,6,7,8,9,10,11,12,13,14,15,16,17,18,19,20,21,22,23,24,25,26],"translation":[0.21214138642130749,0.06542792188427198,0.13567741509886556],"name":"NAUO1"},{"translation":[0.11805861357869255,0.2647720781157281,-0.02772741509886506],"mesh":0,"name":"NAUO61"},{"rotation":[0.0,-0.0,0.7071067811865479,0.7071067811865471],"translation":[-0.5423413864213077,0.2647720781157279,-0.027727415098865048],"mesh":1,"name":"NAUO62"},{"rotation":[0.0,0.0,-0.7071067811865475,0.7071067811865476],"translation":[0.11805861357869259,-0.3956279218842718,-0.02772741509886506],"mesh":2,"name":"NAUO63"},{"rotation":[0.0,0.0,1.0,-2.220446049250312e-16],"translation":[-0.5423413864213073,-0.395627921884272,-0.02772741509886506],"mesh":3,"name":"NAUO64"},{"translation":[0.10535861357869254,-0.2940279218842719,-0.09757741509886506],"mesh":4,"name":"NAUO65"},{"rotation":[0.0,0.0,-0.7071067811865474,0.7071067811865477],"translation":[-0.44074138642130736,0.25207207811572776,-0.09757741509886506],"mesh":5,"name":"NAUO66"},{"translation":[-0.5296413864213073,-0.29402792188427237,-0.09757741509886506],"mesh":6,"name":"NAUO67"},{"rotation":[0.0,0.0,-0.7071067811865474,0.7071067811865477],"translation":[-0.44074138642130708,-0.38292792188427196,-0.09757741509886506],"mesh":7,"name":"NAUO68"},{"rotation":[-0.5000000000000001,0.49999999999999997,0.5,0.5],"translation":[-0.2121413864213072,-0.14391392188427247,-0.1547274150988651],"mesh":8,"name":"NAUO69"},{"translation":[-0.09784138642130702,-0.3829279218842717,-0.12297741509886505],"mesh":9,"name":"NAUO70"},{"translation":[-0.3264413864213071,-0.38292792188427179,-0.12297741509886505],"mesh":10,"name":"NAUO71"},{"translation":[-0.0978413864213073,0.25207207811572798,-0.12297741509886505],"mesh":11,"name":"NAUO72"},{"translation":[-0.3264413864213073,0.25207207811572776,-0.12297741509886505],"mesh":12,"name":"NAUO73"},{"translation":[-0.5423413864213074,-0.06542792188427239,-0.053127415098865028],"mesh":13,"name":"NAUO74"},{"rotation":[6.986417961653758e-19,-5.143899031570203e-17,1.0,-3.061786935099064e-16],"translation":[0.11805861357869255,-0.06542792188427155,-0.05312741509886506],"mesh":14,"name":"NAUO75"},{"rotation":[-1.7539188962154345e-16,0.7071067811865475,2.563835365164946e-16,0.7071067811865476],"translation":[-0.11054138642130684,-0.3956279218842718,-0.1420274150988651],"mesh":15,"name":"NAUO76"},{"translation":[-0.3042163864213074,-0.22735292188427246,-0.15472741509886504],"mesh":16,"name":"NAUO77"},{"rotation":[-8.673617379884036e-19,-3.5300453521074238e-19,1.0,-8.673617379884038e-19],"translation":[-0.12006638642130749,-0.0559029218842725,-0.15472741509886504],"mesh":17,"name":"NAUO78"},{"translation":[-0.33279138642130726,-0.22735292188427243,-0.15472741509886504],"mesh":18,"name":"NAUO79"},{"rotation":[4.986098557373419e-19,-2.672492477452662e-19,1.0,8.673617379884034e-19],"translation":[-0.09149138642130712,-0.05590292188427244,-0.15472741509886504],"mesh":19,"name":"NAUO80"},{"rotation":[2.3565581545043415e-16,-0.7071067811865476,2.3537192215469846e-16,0.7071067811865475],"translation":[-0.3137413864213071,-0.3956279218842718,-0.14202741509886505],"mesh":20,"name":"NAUO81"},{"translation":[-0.5423413864213077,-0.06542792188427003,-0.12297741509886505],"mesh":21,"name":"NAUO82"},{"rotation":[0.0,0.0,1.0,3.4914813388431335e-15],"translation":[0.11805861357869209,-0.06542792188427277,-0.12297741509886505],"mesh":22,"name":"NAUO83"},{"translation":[-0.21214138642130729,0.2647720781157278,-0.122977415098865],"mesh":23,"name":"NAUO84"},{"rotation":[0.0,0.0,1.0,3.4914813388431335e-15],"translation":[-0.2121413864213104,-0.39562792188427,-0.12297741509886505],"mesh":24,"name":"NAUO85"},{"children":[28,29,30,31,32,33,34,41,42,46,47,48,49,50,51,52],"rotation":[-6.623827560072138e-17,-3.189250306701401e-17,0.707106781186549,0.707106781186546],"translation":[0.11429999999998147,0.22148268122384316,-0.1587893249326159],"name":"NAUO2"},{"rotation":[0.4999999999999966,0.4999999999999966,-0.5000000000000053,0.5000000000000018],"translation":[-0.005582681223843088,-1.3877787807814366e-17,-0.15236067506738402],"mesh":25,"name":"NAUO36"},{"rotation":[-0.5,0.49999999999999658,0.5,0.5000000000000036],"translation":[-0.005582681223841479,0.22860000000000303,-0.15236067506738258],"mesh":26,"name":"NAUO37"},{"rotation":[2.468850131082263e-15,0.7071067811865488,0.7071067811865462,2.468850131082254e-15],"translation":[-0.030982681223842763,-0.025399999999997218,0.13973932493261616],"mesh":27,"name":"NAUO38"},{"rotation":[2.468850131082263e-15,0.7071067811865488,0.7071067811865462,2.468850131082254e-15],"translation":[-0.030982681223840796,0.25400000000000269,0.13973932493261519],"mesh":28,"name":"NAUO39"},{"rotation":[-0.18301270189221817,-0.6830127018922145,0.6830127018922247,-0.18301270189221839],"translation":[-0.005582681223842478,0.006350000000002298,0.012739324932615872],"mesh":29,"name":"NAUO40"},{"rotation":[-0.18301270189221828,0.6830127018922247,0.6830127018922146,0.18301270189221817],"translation":[-0.005582681223841729,0.22225000000000209,0.012739324932612874],"mesh":30,"name":"NAUO41"},{"children":[35,36,37,38,39,40],"rotation":[-6.234669935009758e-15,0.2588190451025223,-3.4870081323131555e-15,0.9659258262890678],"translation":[-0.0028941953486844326,0.1855345726296745,-0.02255829890053291],"name":"NAUO42"},{"rotation":[1.996804166340685e-30,5.296612495676417e-59,-8.776077570583752e-30,1.0],"translation":[-0.019977108982175249,0.030365427370327364,0.02917899599515297],"mesh":31,"name":"NAUO55"},{"rotation":[1.996804166340685e-30,5.296612495676417e-59,-8.776077570583752e-30,1.0],"translation":[-0.019969776633756543,-0.15734776313485789,0.029166295995152928],"mesh":32,"name":"NAUO56"},{"rotation":[5.2557785042231248e-17,0.5000000000000001,-6.580388297704567e-17,0.8660254037844386],"translation":[-0.019955111936919235,0.01487861787551252,0.02919169599515291],"mesh":33,"name":"NAUO57"},{"rotation":[0.6123724356957946,0.3535533905932737,-0.3535533905932738,0.6123724356957946],"translation":[-0.019955111936919124,-0.1511175726296727,0.029191695995152996],"mesh":34,"name":"NAUO58"},{"rotation":[-0.7071067811865475,1.2326874191699776e-16,-5.511807515714702e-18,0.7071067811865476],"translation":[-0.019969776633756543,0.030309117875512549,0.02916629599515297],"mesh":35,"name":"NAUO59"},{"rotation":[-6.275350074315773e-30,0.7071067811865475,0.7071067811865475,-6.2753500743157748e-30],"translation":[-0.01999910602743138,-0.1636342631348579,0.02916629599515297],"mesh":36,"name":"NAUO60"},{"rotation":[0.6830127018922146,-0.18301270189221814,0.18301270189221814,0.6830127018922247],"translation":[-0.005582681223841702,0.23495000000000214,0.012739324932612682],"mesh":37,"name":"NAUO43"},{"children":[43,44,45],"rotation":[-3.2295213397925705e-31,-8.668877364968815e-32,0.7071067811865438,0.7071067811865511],"translation":[0.0033605090523277927,0.0025670869535548009,0.01793770752310858],"name":"NAUO44"},{"rotation":[-5.824012151826996e-31,3.396267472520518e-31,2.051038353574629e-29,1.0],"translation":[-0.03189208695355272,0.008943190276170325,0.01702661740950738],"mesh":38,"name":"NAUO52"},{"rotation":[0.7071067811865475,9.813077866780638e-18,-0.7071067811865475,-9.813077866766135e-18],"translation":[-0.0724170869535527,0.008943190276170325,-0.005198382590492656],"mesh":39,"name":"NAUO53"},{"rotation":[-0.5,-0.5,-0.5000000000000001,0.5000000000000001],"translation":[-0.08394208695355277,0.008943190276170325,-0.005198382590492656],"mesh":40,"name":"NAUO54"},{"rotation":[0.7071067811865487,6.05963491551116e-30,5.654351889878287e-30,0.7071067811865462],"translation":[-0.005582681223841506,-0.01587499999999846,0.165139324932616],"mesh":41,"name":"NAUO45"},{"rotation":[0.7071067811865487,6.05963491551116e-30,5.654351889878287e-30,0.7071067811865462],"translation":[-0.005582681223842562,0.24130000000000136,0.1651393249326168],"mesh":42,"name":"NAUO46"},{"rotation":[0.49999999999999658,-0.49999999999999836,0.5000000000000106,-0.4999999999999948],"translation":[-0.005582681223840037,0.20320000000000339,0.0952893249326131],"mesh":43,"name":"NAUO47"},{"rotation":[-0.4999999999999966,0.49999999999999836,-0.5000000000000036,0.5000000000000018],"translation":[-0.005582681223843505,0.025400000000002113,0.09528932493261593],"mesh":44,"name":"NAUO48"},{"rotation":[0.7071067811865426,-9.937183757282918e-15,-2.5381230457357168e-15,0.7071067811865525],"translation":[-0.0055826812238409799,0.1873250000000043,0.16513932493261339],"mesh":45,"name":"NAUO49"},{"rotation":[0.7071067811865487,6.05963491551116e-30,5.654351889878287e-30,0.7071067811865462],"translation":[-0.005582681223842562,0.038099999999981978,0.16513932493261616],"mesh":46,"name":"NAUO50"},{"children":[53,54,55],"rotation":[0.4999999999999974,-0.5000000000000061,-0.4999999999999957,0.5000000000000008],"translation":[-0.010781063814334443,0.22603291304644933,0.0037961346564424067],"name":"NAUO51"},{"rotation":[-5.824012151826996e-31,3.396267472520518e-31,2.051038353574629e-29,1.0],"translation":[-0.03189208695355272,0.008943190276170325,0.01702661740950738],"mesh":47,"name":"NAUO52"},{"rotation":[0.7071067811865475,9.813077866780638e-18,-0.7071067811865475,-9.813077866766135e-18],"translation":[-0.0724170869535527,0.008943190276170325,-0.005198382590492656],"mesh":48,"name":"NAUO53"},{"rotation":[-0.5,-0.5,-0.5000000000000001,0.5000000000000001],"translation":[-0.08394208695355277,0.008943190276170325,-0.005198382590492656],"mesh":49,"name":"NAUO54"},{"children":[57,58,61,64,65,66,67,68,69,70],"rotation":[-0.45029449496087689,-1.100501664646917e-15,3.322546818077275e-16,0.8928800971059491],"translation":[-1.4070901337315319e-14,0.21589774466199347,-0.5651301275705946],"name":"NAUO3"},{"rotation":[1.4099018988904146e-60,-4.930380657631324e-31,2.859620781426167e-30,1.0],"mesh":50,"name":"NAUO24"},{"children":[59,60],"rotation":[0.1830127018922198,0.18301270189221847,-0.6830127018922219,0.6830127018922171],"translation":[0.08613140000000001,-5.551115123125782e-16,-1.1102230246251556e-16],"name":"NAUO25"},{"rotation":[3.944304526105062e-30,5.5511151231257817e-17,-5.127595883936578e-30,1.0],"mesh":51,"name":"NAUO34"},{"rotation":[1.5508251547067147e-30,-0.2588190451025206,-4.498986871965784e-30,0.9659258262890683],"translation":[-0.03839320962149228,-0.001993899999999993,0.007951989730066944],"mesh":52,"name":"NAUO35"},{"children":[62,63],"rotation":[-0.5000000000000052,0.500000000000007,0.49999999999999647,0.4999999999999913],"translation":[-0.0861314,-3.33066907387547e-16,5.828670879282072e-16],"name":"NAUO26"},{"rotation":[3.944304526105062e-30,5.5511151231257817e-17,-5.127595883936578e-30,1.0],"mesh":53,"name":"NAUO34"},{"rotation":[1.5508251547067147e-30,-0.2588190451025206,-4.498986871965784e-30,0.9659258262890683],"translation":[-0.03839320962149228,-0.001993899999999993,0.007951989730066944],"mesh":54,"name":"NAUO35"},{"rotation":[-0.009100500670791337,-0.009100500670791191,-0.7070482168052904,0.7070482168052903],"translation":[0.03968749999999996,-0.0029418500950466614,-0.11426213510178374],"mesh":55,"name":"NAUO27"},{"rotation":[-0.0091005006707913,-0.009100500670791229,-0.7070482168052904,0.7070482168052903],"translation":[-0.03968750000000003,-0.0029418500950466614,-0.11426213510178361],"mesh":56,"name":"NAUO28"},{"rotation":[1.4099018988904146e-60,-4.930380657631324e-31,2.859620781426167e-30,1.0],"translation":[-0.06286499999999999,0.0,2.7755575615628916e-17],"mesh":57,"name":"NAUO29"},{"rotation":[1.4099018988904146e-60,-4.930380657631324e-31,2.859620781426167e-30,1.0],"translation":[0.062865,0.0,-2.7755575615628916e-17],"mesh":58,"name":"NAUO30"},{"rotation":[-0.5000000000000002,2.7940404561633018e-30,3.794496104309507e-31,0.8660254037844385],"mesh":59,"name":"NAUO31"},{"rotation":[-0.7071067811865462,0.7071067811865488,-2.4728956224269327e-15,-2.4728956224269576e-15],"translation":[0.04127500000000008,0.02927349999999973,-0.026083229927617057],"mesh":60,"name":"NAUO32"},{"rotation":[0.7071067811865511,0.7071067811865438,-2.4688501310822525e-15,-2.4688501310822785e-15],"translation":[-0.04127499999999962,-0.029273499999999509,-0.026083229927616526],"mesh":61,"name":"NAUO33"},{"rotation":[0.22129280107253516,-0.6715872960334054,-0.22129280107253733,0.6715872960334203],"translation":[-0.1079500000000319,0.21590000000000193,-0.5651499999999974],"mesh":62,"name":"NAUO4"},{"rotation":[0.22129280107253603,0.6715872960334129,0.2212928010725361,0.6715872960334129],"translation":[0.10794999999998989,0.2159000000000022,-0.5651499999999999],"mesh":63,"name":"NAUO5"},{"children":[74,75,76,82,83,84,85,86,92,93,94,95],"name":"NAUO6"},{"translation":[-0.3048000000000008,-2.6330028493691965e-18,-1.0846837446788913e-29],"mesh":64,"name":"NAUO7"},{"rotation":[-6.98296267768624e-15,6.98296267768634e-15,1.0,3.491481338843087e-15],"translation":[0.3048,-2.1280637800386269e-15,4.736828266594918e-15],"mesh":65,"name":"NAUO8"},{"children":[77,78,79,80,81],"rotation":[0.5000000000000027,0.49999999999999747,0.5000000000000027,-0.49999999999999747],"translation":[-0.29916754999999997,3.1422831228713813e-15,-0.4827270000000002],"name":"NAUO9"},{"rotation":[0.0,0.0,1.4422101917317764e-45,1.0],"mesh":66,"name":"NAUO19"},{"rotation":[0.0,0.0,1.4422101917317764e-45,1.0],"translation":[0.04222749999999997,0.0,0.0],"mesh":67,"name":"NAUO20"},{"rotation":[0.7071067811865475,-1.0197966064698899e-45,-1.0197966064698899e-45,0.7071067811865475],"translation":[0.4255769999999999,0.0,0.0],"mesh":68,"name":"NAUO21"},{"rotation":[1.0,1.4422101917317764e-45,0.0,0.0],"translation":[0.4605020000000001,0.0,0.0],"mesh":69,"name":"NAUO22"},{"rotation":[0.0,0.0,1.4422101917317764e-45,1.0],"mesh":70,"name":"NAUO23"},{"rotation":[2.4688501310822698e-15,0.7071067811865487,-4.937700262164522e-15,0.7071067811865462],"translation":[-0.2762249999999999,2.9326593936879757e-15,0.012700000000000973],"mesh":71,"name":"NAUO10"},{"rotation":[0.7071067811865475,5.8545825673967158e-33,-0.7071067811865475,1.1576945416813776e-32],"translation":[-0.2788144785973512,2.815246350435978e-18,0.012699999999999996],"mesh":72,"name":"NAUO11"},{"rotation":[2.0807720770400135e-15,0.7071067811865427,-2.826565994914841e-15,0.7071067811865525],"translation":[0.2788144785973503,-1.9017702002227868e-15,0.012700000000004354],"mesh":73,"name":"NAUO12"},{"rotation":[-0.7071067811865475,6.20667528484673e-17,0.7071067811865476,-5.96945585410674e-17],"translation":[0.276225,3.797182960523879e-18,0.012700000000000428],"mesh":74,"name":"NAUO13"},{"children":[87,88,89,90,91],"rotation":[0.5000000000000001,-0.49999999999999997,0.5,0.5],"translation":[0.29916755000000008,9.936975113543188e-18,-0.4827269999999997],"name":"NAUO14"},{"rotation":[0.0,0.0,1.4422101917317764e-45,1.0],"mesh":75,"name":"NAUO19"},{"rotation":[0.0,0.0,1.4422101917317764e-45,1.0],"translation":[0.04222749999999997,0.0,0.0],"mesh":76,"name":"NAUO20"},{"rotation":[0.7071067811865475,-1.0197966064698899e-45,-1.0197966064698899e-45,0.7071067811865475],"translation":[0.4255769999999999,0.0,0.0],"mesh":77,"name":"NAUO21"},{"rotation":[1.0,1.4422101917317764e-45,0.0,0.0],"translation":[0.4605020000000001,0.0,0.0],"mesh":78,"name":"NAUO22"},{"rotation":[0.0,0.0,1.4422101917317764e-45,1.0],"mesh":79,"name":"NAUO23"},{"rotation":[0.0,0.0,-0.7071067811865488,0.7071067811865462],"translation":[0.2629394785973505,-8.835338985750676e-16,-0.2412999999999996],"mesh":80,"name":"NAUO15"},{"rotation":[-1.7334705305548197e-16,3.173068402831953e-16,0.7071067811865475,0.7071067811865475],"translation":[-0.2629394785973513,-1.3786260431350188e-16,-0.2412999999999999],"mesh":81,"name":"NAUO16"},{"rotation":[2.520843109358146e-16,4.2107967123869179e-16,1.0,8.326672684688684e-17],"translation":[-0.30075505000000327,2.3624337269355368e-15,-0.45732700000000006],"mesh":82,"name":"NAUO17"},{"translation":[0.3007550500000001,1.965344605669299e-17,-0.45732699999999967],"mesh":83,"name":"NAUO18"}],"scene":0,"scenes":[{"nodes":[0]}]}